<svg version="1.1" xmlns="http://www.w3.org/2000/svg" xmlns:xlink="http://www.w3.org/1999/xlink" width="953" height="953" viewBox="0 0 953 953"><path stroke="none" fill="white" fill-rule="evenodd" d="M0.0,476.5L0.0,0.0L476.5,0.0L953.0,0.0L953.0,476.5L953.0,953.0L476.5,953.0L0.0,953.0L0.0,476.5zM374.4803138464507,351.0C376.52851905634265,351.0 386.21160885598744,352.7668108833326 393.75,354.5160152305665C395.6260419515535,354.951331026014 396.0,354.61942859847136 396.0,352.5190520282149L396.0,350.0L436.5,350.0L477.0,350.0L477.0,352.5190520282149C477.0,354.62123653843577 477.37234320886625,354.9506959712958 479.25,354.5099134331864C491.50615847802305,351.6327632175967 500.1930556093884,350.3497239666165 500.549643345067,351.3639940064528C500.7693059437591,351.9887973029038 501.1004101520043,355.2 501.2854304745009,358.5L501.6218310608583,364.5L501.81091553042916,357.25L502.0,350.0L524.0590169943749,350.0C538.5103843164582,350.0 545.904888222863,349.65512290623684 545.5,349.0C545.1190704426045,348.3836430288147 536.6562823502086,348.0 523.4409830056251,348.0L502.0,348.0L502.0,308.0L502.0,268.0L670.5190520282171,268.0L839.0381040564341,268.0L838.5099134331873,270.25C836.4816791861188,278.88992440428416 834.3609264748397,291.027593141489 834.802412394542,291.46907906121646C835.0944189108563,291.7610855775474 836.149724140364,292.0 837.1475351267812,292.0C838.8373822122276,292.0 838.9801845781762,293.5251292683182 839.2308684601336,314.25L839.5,336.5L856.25,336.77417895847475C867.192094946596,336.9532889403249 873.0,336.6932334901725 873.0,336.02417895847475C873.0,335.3679478037782 867.2518201416495,335.0 857.0,335.0L841.0,335.0L841.0,313.5C841.0,294.8597202790362 841.2036898677725,292.0 842.5313847963423,292.0C845.1337340484932,292.0 845.2387404109879,289.50455776729495 843.0814768201164,278.92724102247496C841.9366645690525,273.3140921035884 841.0000000000002,268.55917467944164 841.0000000000001,268.36075785770424C841.0,268.1623410359669 844.1765576474687,268.0 848.059016994375,268.0C852.5103843164583,268.00000000000006 854.8897279612233,267.63059308762547 854.5,267.00000000000006C854.0917664902134,266.33946430581864 794.1562823502085,266.00000000000006 677.9409830056251,266.0L502.0,266.0L501.7701315007147,243.75L501.5402630014294,221.5L501.2509999608481,243.75L500.9617369202668,266.0L468.48086846013337,266.0C447.49362282004444,266.0 436.0,266.35385823609215 436.0,267.0C436.0,267.6461538461538 447.5,268.0 468.5,268.0L501.0,268.0L501.0,308.0C501.0,341.48092450679593 500.7734749955155,348.0 499.6100789615299,348.0C498.8456223903714,348.0 493.8460868576829,347.1 488.49999999999994,346.0C483.153913142317,344.9 478.37937760962853,344.0 477.88992103847,344.0C477.4004644673115,344.0 477.0,344.9 477.0,346.0C477.0,347.9670781893004 476.33333333333337,348.0 436.5,348.0C396.66666666666663,348.0 396.0,347.9670781893004 396.0,346.0C396.0,344.9 395.5995355326885,344.0 395.11007896152995,344.0C394.6206223903714,344.0 389.84608685768296,344.9 384.5,346.0C379.15391314231704,347.1 374.16044389634993,348.0 373.40340167562863,348.0C372.26797473629216,348.0 371.9783839388179,342.17795525107204 371.74953358782454,314.75C371.50294826554034,285.1964897876599 371.46763758793395,286.1136639455003 371.4319133324315,323.0C371.4098074195364,345.825 371.54914405158604,361.4625 371.74155029254194,357.75C372.07075402763695,351.3979770070429 372.2322303124048,351.0 374.4803138464507,351.0zM208.28725817564845,349.5C208.17025017225512,348.95 206.0970021297653,343.76764635336946 203.68004030344886,337.98365856304326C201.26307847713244,332.199670772717 198.13513854576874,323.42467077271704 196.72906267819624,318.48365856304326C192.8503776824791,304.85378953300057 192.71970484270793,304.0 194.51233276812383,304.0C197.26655448089437,304.0 197.09427912781567,301.67292162798765 193.5640026329192,291.1900506501693C191.13615818865506,283.9807626240822 190.4580186435252,280.79125068844996 191.2992368759248,280.53811703971826C191.95965659416618,280.33938804582095 205.1,279.39276173567293 220.5,278.4345030171671C235.9,277.4762442986613 249.175,276.32515009815614 250.0,275.8765159049334C252.19505810810813,274.6828454523177 251.49084448261013,274.7132640908786 212.4865631448323,277.4969157886633C193.24395341517453,278.870219472428 176.7125,279.995219472428 175.75,279.9969157886633C174.7875,279.9986121048985 174.0,280.3899160093113 174.0,280.86648002069177C174.0,281.3430440320722 177.16614318970278,281.5064236493946 181.03587375489505,281.2295458369638L188.0717475097901,280.72613163254397L187.38498865609327,292.8780105192151L186.69822980239644,305.02988940588625L189.0102223421539,304.7649447029431C191.04099079253754,304.53222710780346 191.49015610755697,305.16900410142256 192.70288913949327,310.0C195.01420425256168,319.20726453185324 200.1216429246393,334.09367530344156 203.5961246095207,341.75L206.88621394268515,349.0L193.94310697134256,349.0C185.74421936756704,349.0 181.0,349.376887800916 181.0,350.02821955426384C181.0,350.69614865691875 185.81803102176036,350.95895034901474 194.75,350.77821955426384C203.24868290661905,350.6062559346195 208.41875092518586,350.1180860295723 208.28725817564845,349.5zM106.94981289209804,339.5604717655924C107.60689916973834,338.76873123666826 107.99949929168733,336.8562312366683 107.82225760754021,335.3104717655924C107.52889102667766,332.7519643069913 107.14139215333739,332.5 103.5,332.5C99.85860784666261,332.5 99.47110897332234,332.7519643069913 99.17774239245979,335.3104717655924C98.78335912534021,338.74996554673885 100.49267985144574,341.0 103.5,341.0C104.74031081301361,341.0 106.29272661445773,340.3522122945166 106.94981289209804,339.5604717655924zM160.94981289209804,339.5604717655924C161.60689916973834,338.76873123666826 161.99949929168733,336.8562312366683 161.82225760754022,335.3104717655924C161.54856373983108,332.92353389472686 160.9883581787323,332.4511460936316 158.10486466213854,332.17581691525356C154.4864404764355,331.83031318779945 153.04128967236574,333.0723388791858 153.01531277451704,336.55C152.98484847749856,340.62841236206935 158.36831740753092,342.6709835353807 160.94981289209804,339.5604717655924zM92.25,338.7795053590478C90.63231765978765,337.99932658766426 89.36768234021235,337.99932658766426 87.75,338.7795053590478C85.77449216322715,339.7322568595369 86.0489843264543,339.8646394375855 90.0,339.8646394375855C93.9510156735457,339.8646394375855 94.22550783677285,339.7322568595369 92.25,338.7795053590478zM146.91431755402664,338.8924918162545C145.27234204301263,338.2894626132009 143.4474719078014,338.29514199885466 141.91431755402664,338.90805288425645C139.88358538245546,339.7198810281268 140.29439712024566,339.87075506564014 144.5,339.85766633115986C148.81406428173923,339.8442400416293 149.1452776108454,339.71183050680355 146.91431755402664,338.8924918162545zM568.3525254258102,319.8252534922534C566.8532011501459,319.09957478185066 565.6459220394819,319.11082408645933 564.3525254258102,319.86252508755996C562.8112818794336,320.75827068060147 563.1721243878151,320.93291984115393 566.5,320.90191103289203C569.990029379258,320.8693912922341 570.2262127645931,320.7321253636526 568.3525254258102,319.8252534922534zM598.7764330371804,320.27310746767375C596.7284712076297,320.05822999991483 593.1284712076297,320.0552581512991 590.7764330371804,320.26650335963876C588.4243948667312,320.47774856797844 590.1,320.65355740523574 594.5,320.657189664655C598.9,320.6608219240742 600.8243948667312,320.4879849354326 598.7764330371804,320.27310746767375zM266.0,303.0C266.0,293.78869409626253 266.2490162676652,292.0 267.53138479633867,292.0C270.13373404849244,292.0 270.2387404109881,289.5045577672958 268.0814768201177,278.9272410224814C266.93666456905294,273.31409210359124 266.0,268.5591746794415 266.0,268.36075785770424C266.0,268.1623410359669 282.9875,268.05790045799256 303.75,268.12866768442797L341.5,268.25733536885593L311.0,270.55654346145315C294.225,271.8211079123816 279.4875,272.88820745438903 278.25,272.9278757770252C277.0125,272.9675440996613 276.0,273.3459849553298 276.0,273.7688554562885C276.0,274.1917259572472 292.9875,273.32212364054834 313.75,271.83640586362446C334.5125,270.3506880867006 352.7375,269.10470313137074 354.25,269.06755040733594C355.99775537451734,269.0246189209824 357.0,268.4533211133731 357.0,267.5C357.0,266.17864271457086 347.05555555555554,266.0 273.5,266.0C215.63998671634306,266.0 190.0,265.67630358330825 190.0,264.9458399065187C190.0,264.36605185510405 191.125,259.89042389717065 192.5,255.00000000000006C195.52897828040972,244.22691798798076 195.58009986324225,243.0 193.0,243.0C191.9,243.0 191.0,242.37453553268853 191.0,241.61007896153004C191.0,240.84562239037155 191.9,235.8460868576831 193.0,230.50000000000017C195.29749528047998,219.33399152312515 195.30320137011,219.28209181296216 194.0939481480819,220.5499999999995C193.59561962952694,221.07249999999976 192.45423376081507,225.325 191.55753510649996,230.0C190.66083645218484,234.675 189.7099863728512,239.5125 189.44453493020296,240.75C189.12827605457562,242.22435762520018 188.23077516263177,243.0 186.8410451358311,243.0C184.87487965570674,243.0 184.76289591420007,243.3829114084838 185.3056648105542,248.25C185.62767357590818,251.1375 186.2047352353418,256.3125 186.58802405374004,259.75L187.28491281446412,266.0L180.64245640723206,266.0C176.8808188024107,266.0 174.0,266.4336978108391 174.0,267.0C174.0,267.65185812147007 189.67301734273832,268.0 219.0190520282149,268.0L264.0381040564298,268.0L263.5099134331864,270.25C261.48167918605503,278.8899244046067 259.3609264748401,291.0275931415067 259.8024123945586,291.4690790612252C260.09441891088466,291.76108557755134 261.1583333333333,292.0 262.16666666666663,292.0C263.83333333333337,292.0 264.0,292.9999999999999 264.0,303.0C264.0,309.6666666666667 264.3939393939394,314.0 265.0,314.0C265.6060606060606,314.0 266.0,309.6666666666667 266.0,303.0zM896.25,306.7795053590478C894.6323176597876,305.99932658766426 893.3676823402124,305.99932658766426 891.75,306.7795053590478C889.7744921632271,307.7322568595369 890.0489843264543,307.8646394375855 894.0,307.8646394375855C897.9510156735457,307.8646394375855 898.2255078367729,307.7322568595369 896.25,306.7795053590478zM925.0,307.0C925.0,306.45 924.5765576474687,306.0 924.0590169943749,306.0C923.5414763412812,306.0 922.8399186938125,306.45 922.5,307.0C922.1600813061875,307.55 922.5835236587188,308.0 923.4409830056251,308.0C924.2984423525313,308.0 925.0,307.55 925.0,307.0zM943.7679091034324,307.28547371355626C942.2652591103204,307.05729955630983 939.5652591103203,307.0527073146734 937.7679091034324,307.275268732142C935.9705590965447,307.49783014961065 937.2,307.6845180964486 940.5,307.69013083622644C943.8,307.69574357600425 945.2705590965446,307.51364787080263 943.7679091034324,307.28547371355626zM413.0,265.9928548194853C446.99996464810073,263.6500342256585 448.35970648596407,263.4814407130862 458.1305239612185,260.39715029162744C478.2656232797644,254.0412344104238 497.0645611387431,234.08315960258054 502.06847329118733,213.75C502.76427224417563,210.92265396925302 503.7999616465665,209.0 504.62718886873245,209.0C505.7266054896799,209.0 505.7767557095527,208.61539138148188 504.8672390430402,207.15902370618255C503.9627654840091,205.71073132954388 504.50597593974567,200.87988157835053 507.41391215038186,184.5110886065354C511.9523662080458,158.9640994359092 513.5840295620532,155.38964878542626 523.0,150.36697320691803C526.1807903844134,148.67027308562595 529.574975419428,148.47170213065374 560.215820083365,148.1897256915964L593.93164016673,147.87945138319282L594.4042297540141,150.1897256915964C594.9836599628751,153.0222949251624 599.0213543611159,200.42576005639705 599.0089325144157,204.25C599.0031708549653,206.0238077713708 598.4675315116568,207.0 597.5,207.0C596.675,207.0 596.0,207.45 596.0,208.0C596.0,208.55 596.8353007968566,209.0 597.8562239930147,209.0C599.4579303143431,209.0 599.8061642997668,210.12373960597844 600.3959308614758,217.19555044920025C601.5177900979379,230.64761238026503 605.9455572170536,238.09984063128624 615.5,242.61670917580557L620.5,244.98046216859203L684.8214285714267,244.990231084296C738.2079089576853,244.99833923795813 749.3776256028731,244.765231539981 750.5238095238128,243.6190476190443C751.2833333333405,242.85952380951866 751.6702406569332,242.00357399025654 751.3836035762411,241.7169369095729C750.3657763127934,240.69910964615516 752.9778267287306,229.89046796761582 756.0874274039841,222.2525552258047C760.3037003850465,211.89639426234356 760.2879127850363,205.6950644916324 756.0129550475287,193.0C752.2918954028171,181.94981071921214 752.0976083890564,177.23107235886107 754.9411941688714,166.96964895722235C757.5262104754506,157.64130479041643 757.5329404422108,150.781602337398 754.9675750377102,140.08022778528849C753.8574479473518,135.44935306719717 752.9302960875863,129.14935306719715 752.9072375715645,126.08022778528849C752.8647101362316,120.41975827235969 753.4475014378843,118.18005049533949 758.9129121204662,103.0C763.3719253617828,90.6151948876798 762.638048750884,80.90395964601382 756.1744626463494,66.76267257244507C754.4807686675948,63.05714248728986 751.9087569096135,56.30714248728986 750.4588809619468,51.76267257244507C747.1453651920705,41.3768373202647 747.5876829987926,34.896304954799874 752.6184905073421,20.12157799518414C754.8285461990553,13.630975968548622 755.9256448743765,8.839881592392064 755.5471634133182,7.331891337952243L754.9419745097707,4.920626685536206L687.7209872548854,5.210313342768103C624.7224273622091,5.481803586678594 620.2325540274303,5.616939492626573 616.2422636859591,7.361675161969146C610.9770032967164,9.66388548336174 603.8110667848395,17.46198248365533 602.2108747071622,22.630877187992823C601.5520807068945,24.758894734596772 599.6413287302339,42.475 597.9647592034723,62.0C596.2881896767108,81.525 594.7113544481157,98.47393835525595 594.4606809177056,99.66430745612433C594.005518956785,101.82572726492633 593.9565423621084,101.82917433548064 557.7524554312073,102.2479056832244C517.0882399732036,102.71822224654973 515.9047215397137,102.88359360898008 501.0123960947174,110.17611419383104C486.022899011,117.51621809119119 472.9096808000027,132.9349780103058 467.568545993558,149.5C466.68185108141967,152.25 463.9803831117072,165.63346795575012 461.5652838386415,179.24103990166697C458.3156819738547,197.55051134403166 456.59507821573146,204.91910923223196 454.9464432705814,207.58665660852546C452.2126391922089,212.01004452591536 445.8376396973766,216.7622760398926 441.6319395586765,217.5119286315229C439.9093728014044,217.8189706438534 423.0095534530115,219.1609127732741 404.07678545113663,220.4940222524578C378.5427754786794,222.29194375725214 369.29307635895583,223.2783522124728 368.2575651177683,224.31386345366025C367.0628907384284,225.50853783300013 367.0671319124211,228.59906763260534 368.28697286675833,245.74319522580777C369.28051217535074,259.7067899180553 370.13468436306516,266.2641114728277 371.10619320012665,267.3858271512463C372.2051004582201,268.6546385644906 373.7694709559747,268.88527716464085 378.5,268.4759124299907C381.8,268.1903410675123 397.325,267.0729651427849 413.0,265.9928548194853zM848.25,243.25749344030447C844.2625,243.06768154014435 841.0,242.53163072597155 841.0,242.06626940880935C841.0,241.60090809164714 841.9,236.84608685768293 843.0,231.5C844.1,226.15391314231707 845.0,221.15437760962857 845.0,220.38992103847005C845.0,219.62546446731153 844.1,219.0 843.0,219.0C841.1159420289855,219.0 841.0,218.33333333333334 841.0,207.5C841.0,200.5 840.6086956521739,196.0 840.0,196.0C839.3913043478261,196.0 839.0,200.5 839.0,207.5C839.0,217.9848484848492 838.8381642512078,219.0 837.1666666666663,219.0C836.1583333333328,219.0 835.0860990815344,219.24723425179857 834.7839238848919,219.54940944844128C834.4817486882496,219.851584645084 835.3044232677158,225.13908464508398 836.6120896170391,231.29940944844128C837.9197559663626,237.45973425179858 838.991990218161,242.60674333272289 838.9948323988135,242.73720740605086C838.9976745794661,242.86767147937883 823.1375,243.09861578370078 803.75,243.25041697121077C771.8266309185251,243.50037211426104 772.6052041122225,243.53001410265824 812.0,243.56451255818502C835.925,243.58546394351086 852.2375,243.44730534046462 848.25,243.25749344030447zM327.0,208.0C327.0,207.3551912568306 316.1666666666667,207.0 296.5,207.0C279.725,207.0 266.0,206.8245355326885 266.0,206.61007896152995C266.0,206.39562239037144 266.9,201.84608685768296 268.0,196.5C270.4697486463917,184.4968265634046 270.47025069521703,184.0 268.01263139046665,184.0C266.07143128638023,184.0 266.0191615983328,183.16949273435733 265.76263139046665,148.25L265.5,112.5L246.78154542060702,112.22805071259475L228.063090841214,111.9561014251895L227.78154542060702,100.22805071259475L227.5,88.5L183.5,88.5L139.5,88.5L139.5,112.5L139.5,136.5L183.75,136.7604019736181L228.0,137.02080394723617L228.0,125.51040197361809L228.0,114.0L246.0,114.0L264.0,114.0L264.0,149.0L264.0,184.0L261.6294035512379,184.0L259.25880710247577,184.0L261.1202649562093,193.25C262.14406677576284,198.3375 263.2194085904025,203.5125 263.5099134331864,204.75C264.01927619433854,206.91979658888073 263.78790320510245,207.0 257.0190520282149,207.0C253.00635067607163,207.0 250.0,207.4283129208883 250.0,208.0C250.0,208.64935064935065 263.5,209.0 288.5,209.0C313.5,209.0 327.0,208.64935064935065 327.0,208.0zM349.0,208.0C349.0,207.45 348.1,207.0 347.0,207.0C345.9,207.0 345.0,207.45 345.0,208.0C345.0,208.55 345.9,209.0 347.0,209.0C348.1,209.0 349.0,208.55 349.0,208.0zM365.0,208.0C365.0,207.45 364.1,207.0 363.0,207.0C361.9,207.0 361.0,207.45 361.0,208.0C361.0,208.55 361.9,209.0 363.0,209.0C364.1,209.0 365.0,208.55 365.0,208.0zM380.0,208.0C380.0,207.45 379.325,207.0 378.5,207.0C377.675,207.0 377.0,207.45 377.0,208.0C377.0,208.55 377.675,209.0 378.5,209.0C379.325,209.0 380.0,208.55 380.0,208.0zM396.0,208.0C396.0,207.45 395.1,207.0 394.0,207.0C392.9,207.0 392.0,207.45 392.0,208.0C392.0,208.55 392.9,209.0 394.0,209.0C395.1,209.0 396.0,208.55 396.0,208.0zM412.0,208.0C412.0,207.45 411.1,207.0 410.0,207.0C408.9,207.0 408.0,207.45 408.0,208.0C408.0,208.55 408.9,209.0 410.0,209.0C411.1,209.0 412.0,208.55 412.0,208.0zM427.0,208.0C427.0,207.45 426.3515576474687,207.0 425.55901699437493,207.0C424.7664763412812,207.0 423.8399186938125,207.45 423.5,208.0C423.1600813061875,208.55 423.8085236587188,209.0 424.94098300562507,209.0C426.0734423525313,209.0 427.0,208.55 427.0,208.0zM443.0,208.0C443.0,207.45 442.1,207.0 441.0,207.0C439.9,207.0 439.0,207.45 439.0,208.0C439.0,208.55 439.9,209.0 441.0,209.0C442.1,209.0 443.0,208.55 443.0,208.0zM521.0,208.0C521.0,207.45 520.1,207.0 519.0,207.0C517.9,207.0 517.0,207.45 517.0,208.0C517.0,208.55 517.9,209.0 519.0,209.0C520.1,209.0 521.0,208.55 521.0,208.0zM537.0,208.0C537.0,207.45 536.1,207.0 535.0,207.0C533.9,207.0 533.0,207.45 533.0,208.0C533.0,208.55 533.9,209.0 535.0,209.0C536.1,209.0 537.0,208.55 537.0,208.0zM552.0,208.0C552.0,207.45 551.325,207.0 550.5,207.0C549.675,207.0 549.0,207.45 549.0,208.0C549.0,208.55 549.675,209.0 550.5,209.0C551.325,209.0 552.0,208.55 552.0,208.0zM568.0,208.0C568.0,207.45 567.1,207.0 566.0,207.0C564.9,207.0 564.0,207.45 564.0,208.0C564.0,208.55 564.9,209.0 566.0,209.0C567.1,209.0 568.0,208.55 568.0,208.0zM584.0,208.0C584.0,207.45 583.1,207.0 582.0,207.0C580.9,207.0 580.0,207.45 580.0,208.0C580.0,208.55 580.9,209.0 582.0,209.0C583.1,209.0 584.0,208.55 584.0,208.0zM771.0,208.0C771.0,207.45 770.325,207.0 769.5,207.0C768.675,207.0 768.0,207.45 768.0,208.0C768.0,208.55 768.675,209.0 769.5,209.0C770.325,209.0 771.0,208.55 771.0,208.0zM787.0,208.0C787.0,207.45 786.1,207.0 785.0,207.0C783.9,207.0 783.0,207.45 783.0,208.0C783.0,208.55 783.9,209.0 785.0,209.0C786.1,209.0 787.0,208.55 787.0,208.0zM22.0,149.0C21.175,148.46684405196876 18.925,148.0306255490341 17.0,148.0306255490341C15.075,148.0306255490341 12.825,148.46684405196876 12.0,149.0C10.94737931171338,149.68025573452212 12.438643684091314,149.9693744509659 17.0,149.9693744509659C21.561356315908686,149.9693744509659 23.05262068828662,149.68025573452212 22.0,149.0zM41.5,149.0C41.16008130618756,148.45 40.23352365871883,148.0 39.44098300562506,148.0C38.648442352531276,148.0 38.0,148.45 38.0,149.0C38.0,149.55 38.92655764746873,150.0 40.05901699437494,150.0C41.19147634128117,150.0 41.83991869381244,149.55 41.5,149.0zM69.0,149.0C67.18108743078041,147.8245284179052 62.23546955646766,147.8245284179052 59.5,149.0C58.1006968878957,149.60130116934636 59.45226488566104,149.87594037603802 64.0,149.91440196287255C68.54522622480411,149.95284233126094 70.04889835957019,149.67785018095157 69.0,149.0zM96.5,149.0C96.16008130618755,148.45 92.30852365871883,148.0 87.94098300562504,148.0C83.31366100187502,148.0 80.0,148.41728599589342 80.0,149.0C80.0,149.58877610200196 83.51967233145831,150.0 88.55901699437496,150.0C94.01038431645819,150.0 96.89363519109989,149.63691511836768 96.5,149.0zM123.5,149.0C120.68932170342123,147.79221011389896 111.0,147.79221011389896 111.0,149.0C111.0,149.581175656332 114.03647649159308,149.97056282101767 118.25,149.92971473738962C123.22877062761054,149.8814479510395 124.87345396623739,149.59019341041844 123.5,149.0zM135.2,148.8C134.26666666666665,147.86666666666667 133.73333333333335,147.86666666666667 132.8,148.8C131.86666666666667,149.73333333333335 132.13333333333333,150.0 134.0,150.0C135.86666666666667,150.0 136.13333333333333,149.73333333333335 135.2,148.8zM161.0,149.0C161.0,148.45 160.35155764746872,148.0 159.55901699437493,148.0C158.76647634128116,148.0 157.83991869381245,148.45 157.5,149.0C157.16008130618755,149.55 157.80852365871883,150.0 158.94098300562507,150.0C160.0734423525313,150.0 161.0,149.55 161.0,149.0zM176.5,149.0C176.16008130618755,148.45 175.23352365871884,148.0 174.44098300562507,148.0C173.64844235253128,148.0 173.0,148.45 173.0,149.0C173.0,149.55 173.9265576474687,150.0 175.05901699437493,150.0C176.19147634128117,150.0 176.83991869381245,149.55 176.5,149.0zM191.5,149.0C191.16008130618755,148.45 190.45852365871883,148.0 189.94098300562507,148.0C189.42344235253128,148.0 189.0,148.45 189.0,149.0C189.0,149.55 189.70155764746872,150.0 190.55901699437493,150.0C191.41647634128117,150.0 191.83991869381245,149.55 191.5,149.0zM213.5,149.0C213.16008130618755,148.45 209.30852365871883,148.0 204.94098300562507,148.0C200.31366100187503,148.0 197.0,148.41728599589342 197.0,149.0C197.0,149.58877610200196 200.5196723314583,150.0 205.55901699437493,150.0C211.01038431645816,150.0 213.8936351910999,149.63691511836768 213.5,149.0zM100.36162639947696,337.5C99.41225235627832,335.02597090119656 100.78072867805005,333.0 103.40122753310422,333.0C105.91231182925766,333.0 107.75708354465293,335.9659960980534 106.50553051379332,337.99105144070717C105.54392584772661,339.5469604741436 101.00800161085539,339.1844268001131 100.36162639947696,337.5zM155.17648364658322,336.3235163534168C155.43529672931663,334.06470327068337 156.0,333.5 158.0,333.5C160.0,333.5 160.5,334.0 160.5,336.0C160.5,338.0 159.93529672931663,338.56470327068337 157.67648364658322,338.8235163534168C155.10806125262388,339.11780423523555 154.88219576476442,338.89193874737606 155.17648364658322,336.3235163534168zM372.65186419358554,257.25C372.3022358923738,252.9875 371.71895480693337,244.2125 371.35568400371795,237.75L370.69519163423536,226.0L374.5975958171177,225.96641429975358C376.74391811770295,225.94794216461804 392.9,224.87986895245552 410.5,223.59291827272574C444.6687707186197,221.09442266466561 446.91548188920797,220.64713978501763 453.2547956983245,215.0811485405707C459.01834418390297,210.02068594577983 460.62078687099887,205.2922394809465 464.97414348038046,180.5C467.1954015136049,167.85 469.7252772569975,155.025 470.5960895768085,152.0C476.6752433349176,130.88243000251487 494.7854471033688,113.5536473069746 516.6094809961303,107.97199947693066C523.5590159641882,106.19460777359657 527.7581319246101,106.0 559.159962533876,106.0L594.0,106.0L594.0,125.5L594.0,145.0L560.25,145.02196200049082C523.1910494717479,145.04607722092607 522.741458201924,145.110447993741 515.2061501641624,151.47116957880542C509.5606637763579,156.23665055783664 508.0413894885721,160.80229568876513 503.4014072339455,186.94617729433543C498.63539264961196,213.80018538865403 497.3797255133249,218.5412968933615 492.6608662507277,227.5C488.4572888726472,235.48044604010465 476.2613577959666,247.72374550778218 468.0,252.2566478312846C455.95985979112896,258.8629201748856 451.2405405768449,259.73417199444697 412.58530854167145,262.48696889483404C393.1766880737108,263.8691360026753 376.3948026635397,265.0 375.2922298524022,265.0C373.5131209632088,265.0 373.2160235963172,264.1279599529251 372.65186419358554,257.25zM474.0,208.0C474.0,207.45 473.3515576474687,207.0 472.55901699437493,207.0C471.7664763412812,207.0 470.8399186938125,207.45 470.5,208.0C470.1600813061875,208.55 470.8085236587188,209.0 471.94098300562507,209.0C473.0734423525313,209.0 474.0,208.55 474.0,208.0zM490.0,208.0C490.0,207.45 489.1,207.0 488.0,207.0C486.9,207.0 486.0,207.45 486.0,208.0C486.0,208.55 486.9,209.0 488.0,209.0C489.1,209.0 490.0,208.55 490.0,208.0zM619.5575214993983,240.75178810007122C617.0733811959948,240.0955386038272 613.8759769494415,237.9712150446795 610.9136434716629,235.00888156690095C607.1205265018611,231.21576459709917 605.996706071707,229.2635112637522 605.0965893002929,224.90374101988368C604.2413496553746,220.76133586345762 598.0,154.01386101246058 598.0,149.00999335246235C598.0,148.33870019565492 623.9600660606287,148.0 675.412102169057,148.0L752.824204338114,148.0L753.4772946981943,151.86560847850188C753.9265852646063,154.52493638929786 753.3302356132756,158.97171318663956 751.566251504719,166.11560847850188C750.1559780502636,171.82702381532584 749.0069824060757,177.85 749.0129278509683,179.5C749.0253521067829,182.94802154660306 751.0440423873267,190.89357736300653 753.2050058375339,196.0C754.019637711424,197.925 755.0021607682384,201.1875 755.3883904082323,203.25C756.01383321918,206.58991921904206 755.8669611636064,207.0 754.0453130586561,207.0C752.9203908763952,207.0 752.0,207.45 752.0,208.0C752.0,208.55 752.9500809046662,209.0 754.1112908992579,209.0C755.9525304576273,209.0 756.1440534897273,209.41570153037497 755.6086388973847,212.25C755.2709703017624,214.0375 753.6300477752611,218.84805342947618 751.9621443940484,222.9401187321693C750.2942410128358,227.03218403486244 748.6563290304243,232.99468403486242 748.3223399886898,236.1901187321693L747.715087185536,242.0L685.607543592768,241.89664755305395C646.081455406715,241.83087264559634 622.0665686114232,241.41461736984436 619.5575214993983,240.75178810007122zM615.0,208.0C615.0,207.45 614.1,207.0 613.0,207.0C611.9,207.0 611.0,207.45 611.0,208.0C611.0,208.55 611.9,209.0 613.0,209.0C614.1,209.0 615.0,208.55 615.0,208.0zM631.0,208.0C631.0,207.45 630.1,207.0 629.0,207.0C627.9,207.0 627.0,207.45 627.0,208.0C627.0,208.55 627.9,209.0 629.0,209.0C630.1,209.0 631.0,208.55 631.0,208.0zM646.0,208.0C646.0,207.45 645.3515576474687,207.0 644.5590169943749,207.0C643.7664763412812,207.0 642.8399186938125,207.45 642.5,208.0C642.1600813061875,208.55 642.8085236587189,209.0 643.9409830056251,209.0C645.0734423525313,209.0 646.0,208.55 646.0,208.0zM662.0,208.0C662.0,207.45 661.1,207.0 660.0,207.0C658.9,207.0 658.0,207.45 658.0,208.0C658.0,208.55 658.9,209.0 660.0,209.0C661.1,209.0 662.0,208.55 662.0,208.0zM677.5,208.0C677.1600813061875,207.45 676.2335236587188,207.0 675.4409830056251,207.0C674.6484423525313,207.0 674.0,207.45 674.0,208.0C674.0,208.55 674.9265576474687,209.0 676.0590169943749,209.0C677.1914763412811,209.0 677.8399186938125,208.55 677.5,208.0zM693.0,208.0C693.0,207.45 692.3515576474687,207.0 691.5590169943749,207.0C690.7664763412812,207.0 689.8399186938125,207.45 689.5,208.0C689.1600813061875,208.55 689.8085236587189,209.0 690.9409830056251,209.0C692.0734423525313,209.0 693.0,208.55 693.0,208.0zM709.0,208.0C709.0,207.45 708.1,207.0 707.0,207.0C705.9,207.0 705.0,207.45 705.0,208.0C705.0,208.55 705.9,209.0 707.0,209.0C708.1,209.0 709.0,208.55 709.0,208.0zM724.5,208.0C724.1600813061875,207.45 723.2335236587188,207.0 722.4409830056251,207.0C721.6484423525313,207.0 721.0,207.45 721.0,208.0C721.0,208.55 721.9265576474687,209.0 723.0590169943749,209.0C724.1914763412811,209.0 724.8399186938125,208.55 724.5,208.0zM740.0,208.0C740.0,207.45 739.1,207.0 738.0,207.0C736.9,207.0 736.0,207.45 736.0,208.0C736.0,208.55 736.9,209.0 738.0,209.0C739.1,209.0 740.0,208.55 740.0,208.0zM598.0,125.5L598.0,106.0L676.1069888041841,106.0C750.1122435293876,106.0 754.1747850474379,106.09190003030602 753.4676559651692,107.75C753.0571790614098,108.7125 751.8214864530441,112.65 750.7216723910233,116.5C748.9358035968271,122.75159751551271 748.8443823781694,124.35531712512832 749.8665863325596,131.5C750.4961030624253,135.9 751.2861104275847,140.7375 751.6221582551361,142.25L752.2331543052295,145.0L675.1165771526148,145.0L598.0,145.0L598.0,125.5zM598.3653685593936,96.75C598.6930669106378,93.8625 600.1269859356721,77.55000000000001 601.5518552816923,60.5C602.9767246277124,43.449999999999996 604.7798706384522,27.199962521103924 605.5588464166694,24.38880560245316C607.2547712819866,18.268575613327908 613.686407478971,11.73609802391048 619.6453014402921,10.081489557541275C622.2000702202293,9.372105889978423 645.3034525340886,9.009273145060778 688.1540593097582,9.00557693440274L752.8081186195163,8.999999999999986L748.9084900679827,20.249999999999993C742.7631630100777,37.97859350264012 743.6655931003764,47.7575890069336 753.4534028790886,69.5C754.938968223247,72.8 756.7974609687101,78.81660036993797 757.5833867578954,82.87022304430661C758.9750189331841,90.04793857133998 758.8617363228532,91.67467140582491 756.3730918288372,100.25C755.8949350434153,101.89762446560265 751.2409021350098,102.00000000000001 676.8173890170996,102.0L597.7695533753133,102.0L598.3653685593936,96.75zM141.0,113.0L141.0,90.0L184.0,90.0L227.0,90.0L227.0,113.0L227.0,136.0L184.0,136.0L141.0,136.0L141.0,113.0zM161.72916666666669,101.39583333333334C161.396875,101.06354166666667 160.534375,101.0280153508772 159.8125,101.31688596491227C159.01476730310264,101.63611233234239 159.2517236807213,101.87306870996106 160.41666666666669,101.92105263157895C161.47083333333333,101.96447368421053 162.06145833333335,101.728125 161.72916666666669,101.39583333333334zM189.25,101.33771929824562C188.5625,101.06030701754385 187.4375,101.06030701754385 186.75,101.33771929824562C186.0625,101.61513157894737 186.625,101.84210526315789 188.0,101.84210526315789C189.375,101.84210526315789 189.9375,101.61513157894737 189.25,101.33771929824562z"/></svg>